<?xml version="1.0" encoding="UTF-8" standalone="no"?>
<svg
   xmlns:dc="http://purl.org/dc/elements/1.1/"
   xmlns:cc="http://creativecommons.org/ns#"
   xmlns:rdf="http://www.w3.org/1999/02/22-rdf-syntax-ns#"
   xmlns:svg="http://www.w3.org/2000/svg"
   xmlns="http://www.w3.org/2000/svg"
   xmlns:sodipodi="http://sodipodi.sourceforge.net/DTD/sodipodi-0.dtd"
   xmlns:inkscape="http://www.inkscape.org/namespaces/inkscape"
   height="471.664"
   id="svg2217"
   inkscape:version="0.46"
   sodipodi:docbase="/datas/Projs/Cliparts Stocker/tmp/AIGA"
   sodipodi:docname="aiga_rail_transportation_.svg"
   sodipodi:version="0.32"
   width="313.622"
   inkscape:output_extension="org.inkscape.output.svg.inkscape"
   inkscape:export-filename="/home/joanna/gfx/vector/aiga/aiga_rail_transportation_.png"
   inkscape:export-xdpi="38.166965"
   inkscape:export-ydpi="38.166965">
  <metadata
     id="metadata3">
    <rdf:RDF>
      <cc:Work
         rdf:about="">
        <dc:title>AIGA_Symbol_Signs</dc:title>
        <dc:description>EPS converted from  http://aiga.org</dc:description>
        <dc:subject>
          <rdf:Bag>
            <rdf:li>symbol</rdf:li>
            <rdf:li>mapsym</rdf:li>
          </rdf:Bag>
        </dc:subject>
        <dc:publisher>
          <cc:Agent
             rdf:about="http://www.openclipart.org/">
            <dc:title>Open Clip Art Library</dc:title>
          </cc:Agent>
        </dc:publisher>
        <dc:creator>
          <cc:Agent>
            <dc:title>Jean-Victor Balin</dc:title>
          </cc:Agent>
        </dc:creator>
        <dc:rights>
          <cc:Agent>
            <dc:title>Jean-Victor Balin</dc:title>
          </cc:Agent>
        </dc:rights>
        <dc:date />
        <dc:format>image/svg+xml</dc:format>
        <dc:type
           rdf:resource="http://purl.org/dc/dcmitype/StillImage" />
        <cc:license
           rdf:resource="http://web.resource.org/cc/PublicDomain" />
        <dc:language>en</dc:language>
      </cc:Work>
      <cc:License
         rdf:about="http://web.resource.org/cc/PublicDomain">
        <cc:permits
           rdf:resource="http://web.resource.org/cc/Reproduction" />
        <cc:permits
           rdf:resource="http://web.resource.org/cc/Distribution" />
        <cc:permits
           rdf:resource="http://web.resource.org/cc/DerivativeWorks" />
      </cc:License>
    </rdf:RDF>
  </metadata>
  <sodipodi:namedview
     bordercolor="#666666"
     borderopacity="1.0"
     id="base"
     inkscape:current-layer="svg2217"
     inkscape:cx="305.25953"
     inkscape:cy="417.84947"
     inkscape:pageopacity="0.0"
     inkscape:pageshadow="2"
     inkscape:window-height="715"
     inkscape:window-width="641"
     inkscape:window-x="0"
     inkscape:window-y="0"
     inkscape:zoom="0.43415836"
     pagecolor="#ffffff"
     showgrid="false" />
  <defs
     id="defs2219">
    <inkscape:perspective
       sodipodi:type="inkscape:persp3d"
       inkscape:vp_x="0 : 235.832 : 1"
       inkscape:vp_y="0 : 1000 : 0"
       inkscape:vp_z="313.62201 : 235.832 : 1"
       inkscape:persp3d-origin="156.811 : 157.22133 : 1"
       id="perspective20" />
    <marker
       id="ArrowEnd"
       markerHeight="3"
       markerUnits="strokeWidth"
       markerWidth="4"
       orient="auto"
       refX="0"
       refY="5"
       viewBox="0 0 10 10">
      <path
         d="M 0 0 L 10 5 L 0 10 z"
         id="path2222" />
    </marker>
    <marker
       id="ArrowStart"
       markerHeight="3"
       markerUnits="strokeWidth"
       markerWidth="4"
       orient="auto"
       refX="10"
       refY="5"
       viewBox="0 0 10 10">
      <path
         d="M 10 0 L 0 5 L 10 10 z"
         id="path2225" />
    </marker>
  </defs>
  <path
     style="fill:#000000;stroke:none"
     d="M 157.09375 39.375 L 83 39.4375 C 48.493 39.4375 23.09375 67.15175 23.09375 97.34375 L 23.09375 311.1875 C 23.09375 340.43751 45.988 364.44825 69 368.15625 L 0 471.65625 L 39.8125 471.65625 L 89.1875 399.3125 L 156.75 399.3125 L 156.8125 399.3125 L 156.875 399.3125 L 224.4375 399.3125 L 273.8125 471.65625 L 313.625 471.65625 L 244.625 368.15625 C 267.637 364.44825 290.53125 340.4375 290.53125 311.1875 L 290.53125 97.34375 C 290.53126 67.151748 265.132 39.4375 230.625 39.4375 L 157.09375 39.375 z M 127.75 51.78125 L 156.75 51.78125 L 156.8125 51.78125 L 156.875 51.78125 L 185.875 51.78125 C 191.125 51.78125 195.6875 56.1875 195.6875 61.4375 L 195.6875 78.4375 C 195.6875 83.6875 191.37501 88.187504 185.875 88.1875 L 156.875 88.1875 L 156.8125 88.1875 L 156.75 88.1875 L 127.75 88.1875 C 122.25 88.1875 117.9375 83.687496 117.9375 78.4375 L 117.9375 61.4375 C 117.9375 56.1875 122.5 51.78125 127.75 51.78125 z M 85 99.71875 L 156.75 99.71875 L 156.875 99.71875 L 228.625 99.71875 C 248.125 99.71875 258.46875 113.6875 258.46875 129.6875 L 258.46875 168.1875 C 258.62075 186.6875 245.12501 197.99999 228.625 198 L 156.875 198 L 156.8125 198 L 156.75 198 L 85 198 C 68.5 198 55.00425 186.6875 55.15625 168.1875 L 55.15625 129.6875 C 55.15625 113.6875 65.5 99.718752 85 99.71875 z M 81.75 284.4375 C 96.255 284.43751 108 296.1825 108 310.6875 C 108 325.19151 96.255 336.9375 81.75 336.9375 C 67.245 336.93751 55.5 325.1915 55.5 310.6875 C 55.5 296.18251 67.245 284.4375 81.75 284.4375 z M 231.25 284.4375 C 245.755 284.4375 257.53125 296.18251 257.53125 310.6875 C 257.53125 325.1915 245.755 336.93751 231.25 336.9375 C 216.745 336.9375 205 325.19151 205 310.6875 C 205 296.1825 216.745 284.43751 231.25 284.4375 z "
     id="path2229" />
  <path
     d="M 134.768,33.184 C 125.603,33.184 118.177,25.756 118.177,16.591 C 118.177,7.428 125.603,0 134.768,0 C 143.931,0 151.359,7.428 151.359,16.591 C 151.359,25.756 143.931,33.184 134.768,33.184 z"
     id="path2233"
     style="fill:#000000;stroke:none" />
  <path
     d="M 178.854,33.184 C 188.019,33.184 195.445,25.756 195.445,16.591 C 195.445,7.428 188.019,0 178.854,0 C 169.691,0 162.263,7.428 162.263,16.591 C 162.263,25.756 169.691,33.184 178.854,33.184 z"
     id="path2235"
     style="fill:#000000;stroke:none" />
</svg>
