<?xml version="1.0" encoding="iso-8859-1"?>
<!DOCTYPE svg PUBLIC "-//W3C//DTD SVG 1.0//EN"    "http://www.w3.org/TR/2001/REC-SVG-20010904/DTD/svg10.dtd" [
	<!ENTITY ns_flows "http://ns.adobe.com/Flows/1.0/">
	<!ENTITY ns_svg "http://www.w3.org/2000/svg">
	<!ENTITY ns_xlink "http://www.w3.org/1999/xlink">
]>
<svg  xmlns="&ns_svg;" xmlns:xlink="&ns_xlink;"
	 width="222.359375" height="312.2314453" viewBox="0 0 222.359375 312.2314453"
	 overflow="visible" enable-background="new 0 0 222.359375 312.2314453" xml:space="preserve">
	<g id="Ebene_1">
		<path fill="#FC1B1C" stroke="#000000" stroke-width="2.5" d="M221.109375,1.25H1.25l0.0009766,199.8046875
			c0,60.7109375,49.2172852,109.9267578,109.9277344,109.9267578c60.7138672,0,109.9287109-49.2158203,109.9287109-109.9267578
			L221.109375,1.25z"/>
		<path fill="#FFFFFF" stroke="#000000" stroke-width="1.2" stroke-miterlimit="3.8636999" d="M111.6259766,17.1669922h-1.9428711
			v5.2041016h-6.2700195v4.0668945h6.2700195v9.5253906c-7.7954102,1.390625-7.2871094,10.2382813-7.2871094,10.2382813
			l9.2299805-0.5083008l9.2304688,0.5083008c0,0,0.5078125-8.8476563-7.2871094-10.2382813v-9.5253906h6.2695313v-4.0668945
			h-6.2695313v-5.2041016H111.6259766L111.6259766,17.1669922z"/>
		<polygon fill="#FFFFFF" stroke="#000000" stroke-width="1.2" stroke-miterlimit="3.8636999" points="30.402832,53.2260742 
			39.1474609,53.2260742 39.1474609,64.355957 45.5302734,64.355957 45.5302734,53.2260742 53.8959961,53.2260742 
			53.8959961,64.355957 59.2963867,64.355957 59.2963867,53.2260742 67.9833984,53.2260742 67.9833984,64.355957 
			73.7006836,64.355957 73.7006836,53.2260742 82.0200195,53.2260742 82.0200195,75.1459961 79.2275391,76.3510742 
			33.7641602,76.3510742 30.402832,75.1459961 30.402832,53.2260742 "/>
		<polygon fill="#FFFFFF" stroke="#000000" stroke-width="1.2" stroke-miterlimit="3.8636999" points="192.8486328,53.2260742 
			184.1044922,53.2260742 184.1044922,64.355957 177.7216797,64.355957 177.7216797,53.2260742 169.3564453,53.2260742 
			169.3564453,64.355957 163.9560547,64.355957 163.9560547,53.2260742 155.2685547,53.2260742 155.2685547,64.355957 
			149.5517578,64.355957 149.5517578,53.2260742 141.2324219,53.2260742 141.2324219,75.1459961 144.0244141,76.3510742 
			189.4882813,76.3510742 192.8486328,75.1459961 192.8486328,53.2260742 "/>
		<polygon fill="#FFFFFF" stroke="#000000" stroke-width="1.2" stroke-miterlimit="3.8636999" points="33.7641602,76.3452148 
			79.1630859,76.3452148 79.1630859,172.7744141 33.7641602,172.7744141 33.7641602,76.3452148 "/>
		<polygon fill="#FFFFFF" stroke="#000000" stroke-width="1.2" stroke-miterlimit="3.8636999" points="189.4882813,76.3452148 
			144.0888672,76.3452148 144.0888672,172.7744141 189.4882813,172.7744141 189.4882813,76.3452148 "/>
		<polygon fill="#FFFFFF" stroke="#000000" stroke-width="1.2" stroke-miterlimit="3.8636999" points="68.9702148,40.1591797 
			60.7314453,40.159668 56.6123047,47.2944336 52.4931641,40.159668 44.2543945,40.1591797 48.3735352,33.0249023 
			44.2543945,25.8901367 52.4931641,25.8896484 56.6123047,18.7548828 60.7314453,25.8896484 68.9702148,25.8901367 
			64.8510742,33.0244141 68.9702148,40.1591797 "/>
		<polygon fill="#FFFFFF" stroke="#000000" stroke-width="1.2" stroke-miterlimit="3.8636999" points="154.2822266,40.1591797 
			162.5205078,40.159668 166.6396484,47.2944336 170.7587891,40.159668 178.9980469,40.1591797 174.8789063,33.0249023 
			178.9980469,25.8901367 170.7597656,25.8896484 166.6396484,18.7548828 162.5205078,25.8896484 154.2822266,25.8901367 
			158.4013672,33.0244141 154.2822266,40.1591797 "/>
		<path fill="#FFFFFF" stroke="#000000" stroke-width="1.2" stroke-miterlimit="3.8636999" d="M111.6259766,44.1645508
			c-10.9604492,0-22.0673828,9.5996094-22.0673828,21.5810547c2.4047852,0,22.0673828,0,22.0673828,0s19.6630859,0,22.0673828,0
			C133.6933594,53.7641602,122.5869141,44.1645508,111.6259766,44.1645508L111.6259766,44.1645508z"/>
		<polygon fill="#FFFFFF" stroke="#000000" stroke-width="1.2" stroke-miterlimit="3.8636999" points="111.6259766,65.7456055 
			86.2631836,65.7456055 86.2631836,75.4921875 88.7631836,76.3452148 111.6259766,76.3452148 134.4892578,76.3452148 
			136.9892578,75.4921875 136.9892578,65.7456055 111.6259766,65.7456055 "/>
		<polygon fill="#FFFFFF" stroke="#000000" stroke-width="1.2" stroke-miterlimit="3.8636999" points="111.6259766,76.3452148 
			89.2001953,76.3452148 89.2001953,171.4575195 111.6259766,171.4575195 134.0517578,171.4575195 134.0517578,76.3452148 
			111.6259766,76.3452148 "/>
		<polygon fill="#FFFFFF" stroke="#000000" stroke-width="1.2" stroke-miterlimit="3.8636999" points="111.6259766,146.2788086 
			104.5961914,146.2788086 104.5961914,159.3339844 91.5415039,159.3339844 91.5415039,146.2788086 77.1977539,146.2788086 
			77.1977539,159.3339844 65.2407227,159.3339844 65.2407227,146.2788086 51.3574219,146.2788086 51.3574219,159.3339844 
			39.4916992,159.3339844 39.4916992,146.2788086 23.2407227,146.2788086 23.2407227,171.015625 27.1728516,171.9550781 
			111.6259766,171.9550781 196.0791016,171.9550781 198.0117188,171.015625 198.0117188,146.2788086 183.7607422,146.2788086 
			183.7607422,159.3339844 171.8945313,159.3339844 171.8945313,146.2788086 158.0117188,146.2788086 158.0117188,159.3339844 
			146.0537109,159.3339844 146.0537109,146.2788086 131.7109375,146.2788086 131.7109375,159.3339844 118.6552734,159.3339844 
			118.6552734,146.2788086 111.6259766,146.2788086 "/>
		<path fill="#FFFFFF" stroke="#000000" stroke-miterlimit="3.8636999" d="M194.5966797,272.4541016
			c6.5830078-7.8037109,12.3740234-17.4228516,12.3740234-17.4228516
			c-1.3662109-5.1025391-2.7978516-10.9267578-4.2578125-17.5400391
			c-7.3710938-33.3974609-4.6992188-66.4755859-4.6992188-66.4755859H23.2407227c0,0,2.6713867,33.078125-4.6992188,66.4755859
			c-1.3320313,6.0351563-2.6411133,11.4140625-3.8979492,16.1865234c0,0,5.2294922,9.4882813,12.328125,18.0263672
			c6.4248047,7.7275391,14.7861328,14.5859375,14.7861328,14.5859375s27.4853516,24.9140625,70.0893555,24.9140625
			c40.1665039,0,68.7543945-24.9140625,68.7543945-24.9140625S187.9951172,280.2802734,194.5966797,272.4541016z"/>
		<path fill="none" stroke="#000000" stroke-width="2" stroke-linecap="square" stroke-miterlimit="3.8636999" d="
			M34.4628906,76.8535156H78.5 M144.9824219,76.8535156h44.0371094 M89.828125,76.8535156h43.4375"/>
		<polygon fill="#FFFFFF" points="76.5185547,185.3730469 146.734375,184.4667969 146.734375,300.4521484 76.5185547,300.4521484 
			76.5185547,185.3730469 "/>
		<g>
			<defs>
				<path id="XMLID_1_" d="M76.5185547,185.3730469l70.2158203-0.90625v120.2910156c0,0-17.2412109,6.1367188-34.637207,6.1962891
					c-17.7094727,0.0605469-35.5786133-5.9560547-35.5786133-5.9560547V185.3730469L76.5185547,185.3730469z"/>
			</defs>
			<clipPath id="XMLID_3_">
				<use xlink:href="#XMLID_1_" />
			</clipPath>
			
				<line clip-path="url(#XMLID_3_)" fill="none" stroke="#000000" stroke-miterlimit="3.8636999" x1="134.6054688" y1="231.9091797" x2="128.1542969" y2="231.9091797"/>
			<path clip-path="url(#XMLID_3_)" stroke="#000000" stroke-width="0.9099" stroke-miterlimit="3.8636999" d="
				M127.6992188,232.0273438c0-3.15625-1.1777344-3.15625-2.1044922-3.15625s0.1132813,1.2714844,0.1132813,3.0146484
				s-1.0400391,3.2988281-0.1132813,3.2988281S127.6992188,234.8994141,127.6992188,232.0273438L127.6992188,232.0273438z"/>
			
				<line clip-path="url(#XMLID_3_)" fill="none" stroke="#000000" stroke-miterlimit="3.8636999" x1="134.6054688" y1="282.0595703" x2="128.1542969" y2="282.0595703"/>
			<path clip-path="url(#XMLID_3_)" stroke="#000000" stroke-width="0.9099" stroke-miterlimit="3.8636999" d="
				M127.6992188,282.1787109c0-3.1572266-1.1777344-3.15625-2.1044922-3.15625s0.1132813,1.2705078,0.1132813,3.0136719
				s-1.0400391,3.2988281-0.1132813,3.2988281S127.6992188,285.0507813,127.6992188,282.1787109L127.6992188,282.1787109z"/>
			<path clip-path="url(#XMLID_3_)" fill="none" stroke="#000000" stroke-width="2.5" stroke-miterlimit="3.8636999" d="
				M77.9799805,305.8789063v-78.7021484c0-6.6865234,9.0942383-30.8115234,33.6459961-30.8115234
				s33.6464844,24.125,33.6464844,30.8115234v78.4111328"/>
			<path clip-path="url(#XMLID_3_)" fill="none" stroke="#000000" stroke-width="1.2" stroke-miterlimit="3.8636999" d="
				M88.6469727,309.3134766v-82.9521484c0-6.6445313,9.0537109-19.6865234,22.9790039-19.6865234v104.2792969V206.6748047
				c13.9257813,0,22.9794922,13.0419922,22.9794922,24.4316406v77.4638672"/>
			
				<line clip-path="url(#XMLID_3_)" fill="none" stroke="#000000" stroke-miterlimit="3.8636999" x1="88.6469727" y1="231.9091797" x2="95.0981445" y2="231.9091797"/>
			<path clip-path="url(#XMLID_3_)" stroke="#000000" stroke-width="0.9099" stroke-miterlimit="3.8636999" d="
				M95.5532227,232.0273438c0-3.15625,1.1777344-3.15625,2.1044922-3.15625c0.9262695,0-0.1142578,1.2714844-0.1142578,3.0146484
				s1.0405273,3.2988281,0.1142578,3.2988281C96.730957,235.1845703,95.5532227,234.8994141,95.5532227,232.0273438
				L95.5532227,232.0273438z"/>
			
				<line clip-path="url(#XMLID_3_)" fill="none" stroke="#000000" stroke-miterlimit="3.8636999" x1="88.6469727" y1="282.0595703" x2="95.0981445" y2="282.0595703"/>
			<path clip-path="url(#XMLID_3_)" stroke="#000000" stroke-width="0.9099" stroke-miterlimit="3.8636999" d="
				M95.5532227,282.1787109c0-3.1572266,1.1777344-3.15625,2.1044922-3.15625c0.9262695,0-0.1142578,1.2705078-0.1142578,3.0136719
				s1.0405273,3.2988281,0.1142578,3.2988281C96.730957,285.3349609,95.5532227,285.0507813,95.5532227,282.1787109
				L95.5532227,282.1787109z"/>
		</g>
		
			<line fill="none" stroke="#000000" stroke-width="2" stroke-linecap="square" stroke-miterlimit="3.8636999" x1="23.840332" y1="171.015625" x2="197.5117188" y2="171.015625"/>
	</g>
</svg>
