<?xml version="1.0" encoding="UTF-8" standalone="no"?>
<svg
   xmlns:dc="http://purl.org/dc/elements/1.1/"
   xmlns:cc="http://creativecommons.org/ns#"
   xmlns:rdf="http://www.w3.org/1999/02/22-rdf-syntax-ns#"
   xmlns:svg="http://www.w3.org/2000/svg"
   xmlns="http://www.w3.org/2000/svg"
   xmlns:xlink="http://www.w3.org/1999/xlink"
   xmlns:sodipodi="http://sodipodi.sourceforge.net/DTD/sodipodi-0.dtd"
   xmlns:inkscape="http://www.inkscape.org/namespaces/inkscape"
   width="222.359375"
   height="312.2314453"
   viewBox="0 0 222.359375 312.2314453"
   overflow="visible"
   enable-background="new 0 0 222.359375 312.2314453"
   xml:space="preserve"
   id="svg2694"
   sodipodi:version="0.32"
   inkscape:version="0.46"
   sodipodi:docname="Coat_of_arms_of_Hamburg.svg"
   inkscape:output_extension="org.inkscape.output.svg.inkscape"
   inkscape:export-filename="/tmp/hhtp_icon.png"
   inkscape:export-xdpi="12.106403"
   inkscape:export-ydpi="12.106403"><metadata
   id="metadata2760"><rdf:RDF><cc:Work
       rdf:about=""><dc:format>image/svg+xml</dc:format><dc:type
         rdf:resource="http://purl.org/dc/dcmitype/StillImage" /></cc:Work></rdf:RDF></metadata><defs
   id="defs2758"><inkscape:perspective
   sodipodi:type="inkscape:persp3d"
   inkscape:vp_x="0 : 156.11572 : 1"
   inkscape:vp_y="0 : 1000 : 0"
   inkscape:vp_z="222.35938 : 156.11572 : 1"
   inkscape:persp3d-origin="111.17969 : 104.07715 : 1"
   id="perspective2762" />
		
		
		
		
		
		
		
		
		
		
		
		
		
		
		
		
		
			
	
			<defs
   id="defs2729">
				<path
   id="XMLID_1_"
   d="M 76.518555,185.37305 L 146.73438,184.4668 L 146.73438,304.75781 C 146.73438,304.75781 129.49316,310.89453 112.09717,310.9541 C 94.387695,311.01465 76.518555,304.99805 76.518555,304.99805 L 76.518555,185.37305 L 76.518555,185.37305 z" />
			</defs>
			<clipPath
   id="XMLID_3_">
				<use
   height="312.23145"
   width="222.35938"
   y="0"
   x="0"
   xlink:href="#XMLID_1_"
   id="use2733" />
			</clipPath>
			
				
			
			
				
			
			
			
			
				
			
			
				
			
		</defs><sodipodi:namedview
   inkscape:window-height="480"
   inkscape:window-width="640"
   inkscape:pageshadow="2"
   inkscape:pageopacity="0.0"
   guidetolerance="10.0"
   gridtolerance="10.0"
   objecttolerance="10.0"
   borderopacity="1.0"
   bordercolor="#666666"
   pagecolor="#ffffff"
   id="base"
   showgrid="false" />
	<path
   id="path2697"
   d="M 221.10937,1.25 L 1.25,1.25 L 1.2509766,201.05469 C 1.2509766,261.76562 50.468262,310.98145 111.17871,310.98145 C 171.89258,310.98145 221.10742,261.76562 221.10742,201.05469 L 221.10937,1.25 z"
   style="fill:#fc1b1c;stroke:#000000;stroke-width:2.5" /><path
   id="path2699"
   d="M 111.62598,17.166992 L 109.68311,17.166992 L 109.68311,22.371094 L 103.41309,22.371094 L 103.41309,26.437988 L 109.68311,26.437988 L 109.68311,35.963379 C 101.8877,37.354004 102.396,46.20166 102.396,46.20166 L 111.62598,45.693359 L 120.85645,46.20166 C 120.85645,46.20166 121.36426,37.354004 113.56934,35.963379 L 113.56934,26.437988 L 119.83887,26.437988 L 119.83887,22.371094 L 113.56934,22.371094 L 113.56934,17.166992 L 111.62598,17.166992 L 111.62598,17.166992 z"
   stroke-miterlimit="3.8636999"
   style="fill:#ffffff;stroke:#000000;stroke-width:1.20000005;stroke-miterlimit:3.86369991" /><polygon
   id="polygon2701"
   points="30.402832,53.226074 39.147461,53.226074 39.147461,64.355957 45.530273,64.355957 45.530273,53.226074 53.895996,53.226074 53.895996,64.355957 59.296387,64.355957 59.296387,53.226074 67.983398,53.226074 67.983398,64.355957 73.700684,64.355957 73.700684,53.226074 82.02002,53.226074 82.02002,75.145996 79.227539,76.351074 33.76416,76.351074 30.402832,75.145996 30.402832,53.226074 "
   stroke-miterlimit="3.8636999"
   style="fill:#ffffff;stroke:#000000;stroke-width:1.20000005;stroke-miterlimit:3.86369991" /><polygon
   id="polygon2703"
   points="192.84863,53.226074 184.10449,53.226074 184.10449,64.355957 177.72168,64.355957 177.72168,53.226074 169.35645,53.226074 169.35645,64.355957 163.95605,64.355957 163.95605,53.226074 155.26855,53.226074 155.26855,64.355957 149.55176,64.355957 149.55176,53.226074 141.23242,53.226074 141.23242,75.145996 144.02441,76.351074 189.48828,76.351074 192.84863,75.145996 192.84863,53.226074 "
   stroke-miterlimit="3.8636999"
   style="fill:#ffffff;stroke:#000000;stroke-width:1.20000005;stroke-miterlimit:3.86369991" /><polygon
   id="polygon2705"
   points="33.76416,76.345215 79.163086,76.345215 79.163086,172.77441 33.76416,172.77441 33.76416,76.345215 "
   stroke-miterlimit="3.8636999"
   style="fill:#ffffff;stroke:#000000;stroke-width:1.20000005;stroke-miterlimit:3.86369991" /><polygon
   id="polygon2707"
   points="189.48828,76.345215 144.08887,76.345215 144.08887,172.77441 189.48828,172.77441 189.48828,76.345215 "
   stroke-miterlimit="3.8636999"
   style="fill:#ffffff;stroke:#000000;stroke-width:1.20000005;stroke-miterlimit:3.86369991" /><polygon
   id="polygon2709"
   points="68.970215,40.15918 60.731445,40.159668 56.612305,47.294434 52.493164,40.159668 44.254394,40.15918 48.373535,33.024902 44.254394,25.890137 52.493164,25.889648 56.612305,18.754883 60.731445,25.889648 68.970215,25.890137 64.851074,33.024414 68.970215,40.15918 "
   stroke-miterlimit="3.8636999"
   style="fill:#ffffff;stroke:#000000;stroke-width:1.20000005;stroke-miterlimit:3.86369991" /><polygon
   id="polygon2711"
   points="154.28223,40.15918 162.52051,40.159668 166.63965,47.294434 170.75879,40.159668 178.99805,40.15918 174.87891,33.024902 178.99805,25.890137 170.75977,25.889648 166.63965,18.754883 162.52051,25.889648 154.28223,25.890137 158.40137,33.024414 154.28223,40.15918 "
   stroke-miterlimit="3.8636999"
   style="fill:#ffffff;stroke:#000000;stroke-width:1.20000005;stroke-miterlimit:3.86369991" /><path
   id="path2713"
   d="M 111.62598,44.164551 C 100.66553,44.164551 89.558594,53.76416 89.558594,65.745606 C 91.963379,65.745606 111.62598,65.745606 111.62598,65.745606 C 111.62598,65.745606 131.28906,65.745606 133.69336,65.745606 C 133.69336,53.76416 122.58691,44.164551 111.62598,44.164551 L 111.62598,44.164551 z"
   stroke-miterlimit="3.8636999"
   style="fill:#ffffff;stroke:#000000;stroke-width:1.20000005;stroke-miterlimit:3.86369991" /><polygon
   id="polygon2715"
   points="111.62598,65.745605 86.263184,65.745605 86.263184,75.492188 88.763184,76.345215 111.62598,76.345215 134.48926,76.345215 136.98926,75.492188 136.98926,65.745605 111.62598,65.745605 "
   stroke-miterlimit="3.8636999"
   style="fill:#ffffff;stroke:#000000;stroke-width:1.20000005;stroke-miterlimit:3.86369991" /><polygon
   id="polygon2717"
   points="111.62598,76.345215 89.200195,76.345215 89.200195,171.45752 111.62598,171.45752 134.05176,171.45752 134.05176,76.345215 111.62598,76.345215 "
   stroke-miterlimit="3.8636999"
   style="fill:#ffffff;stroke:#000000;stroke-width:1.20000005;stroke-miterlimit:3.86369991" /><polygon
   id="polygon2719"
   points="111.62598,146.27881 104.59619,146.27881 104.59619,159.33398 91.541504,159.33398 91.541504,146.27881 77.197754,146.27881 77.197754,159.33398 65.240723,159.33398 65.240723,146.27881 51.357422,146.27881 51.357422,159.33398 39.491699,159.33398 39.491699,146.27881 23.240723,146.27881 23.240723,171.01562 27.172852,171.95508 111.62598,171.95508 196.0791,171.95508 198.01172,171.01562 198.01172,146.27881 183.76074,146.27881 183.76074,159.33398 171.89453,159.33398 171.89453,146.27881 158.01172,146.27881 158.01172,159.33398 146.05371,159.33398 146.05371,146.27881 131.71094,146.27881 131.71094,159.33398 118.65527,159.33398 118.65527,146.27881 111.62598,146.27881 "
   stroke-miterlimit="3.8636999"
   style="fill:#ffffff;stroke:#000000;stroke-width:1.20000005;stroke-miterlimit:3.86369991" /><path
   id="path2721"
   d="M 194.59668,272.4541 C 201.17969,264.65039 206.9707,255.03125 206.9707,255.03125 C 205.60449,249.92871 204.17285,244.10449 202.71289,237.49121 C 195.3418,204.09375 198.01367,171.01562 198.01367,171.01562 L 23.240723,171.01562 C 23.240723,171.01562 25.912109,204.09375 18.541504,237.49121 C 17.209473,243.52637 15.900391,248.90527 14.643555,253.67773 C 14.643555,253.67773 19.873047,263.16602 26.97168,271.7041 C 33.396484,279.43164 41.757812,286.29004 41.757812,286.29004 C 41.757812,286.29004 69.243164,311.2041 111.84717,311.2041 C 152.01367,311.2041 180.60156,286.29004 180.60156,286.29004 C 180.60156,286.29004 187.99512,280.28027 194.59668,272.4541 z"
   stroke-miterlimit="3.8636999"
   style="fill:#ffffff;stroke:#000000;stroke-miterlimit:3.86369991" /><path
   id="path2723"
   d="M 34.462891,76.853516 L 78.5,76.853516 M 144.98242,76.853516 L 189.01953,76.853516 M 89.828125,76.853516 L 133.26562,76.853516"
   stroke-miterlimit="3.8636999"
   style="fill:none;stroke:#000000;stroke-width:2;stroke-linecap:square;stroke-miterlimit:3.86369991" /><polygon
   id="polygon2725"
   points="76.518555,185.37305 146.73438,184.4668 146.73438,300.45215 76.518555,300.45215 76.518555,185.37305 "
   style="fill:#ffffff" /><line
   id="line2755"
   y2="171.01562"
   x2="197.51172"
   y1="171.01562"
   x1="23.840332"
   stroke-miterlimit="3.8636999"
   style="fill:none;stroke:#000000;stroke-width:2;stroke-linecap:square;stroke-miterlimit:3.86369991" />
<g
   id="g4389"
   transform="matrix(0.2556281,0,0,0.2556281,76.851267,202.80465)"><path
     id="path2229"
     d="M 131.60606,-69.818483 L 57.512314,-69.755983 C 23.005314,-69.755983 -2.3939361,-42.041733 -2.3939361,-11.849733 L -2.3939361,201.99402 C -2.3939361,231.24403 20.500314,255.25477 43.512314,258.96277 L -25.487686,362.46277 L 14.324814,362.46277 L 63.699814,290.11902 L 131.26231,290.11902 L 131.32481,290.11902 L 131.38731,290.11902 L 198.94981,290.11902 L 248.32481,362.46277 L 288.13731,362.46277 L 219.13731,258.96277 C 242.14931,255.25477 265.04356,231.24402 265.04356,201.99402 L 265.04356,-11.849733 C 265.04357,-42.041735 239.64431,-69.755983 205.13731,-69.755983 L 131.60606,-69.818483 z M 102.26231,-57.412233 L 131.26231,-57.412233 L 131.32481,-57.412233 L 131.38731,-57.412233 L 160.38731,-57.412233 C 165.63731,-57.412233 170.19981,-53.005983 170.19981,-47.755983 L 170.19981,-30.755983 C 170.19981,-25.505983 165.88732,-21.005979 160.38731,-21.005983 L 131.38731,-21.005983 L 131.32481,-21.005983 L 131.26231,-21.005983 L 102.26231,-21.005983 C 96.762314,-21.005983 92.449814,-25.505987 92.449814,-30.755983 L 92.449814,-47.755983 C 92.449814,-53.005983 97.012314,-57.412233 102.26231,-57.412233 z M 59.512314,-9.474733 L 131.26231,-9.474733 L 131.38731,-9.474733 L 203.13731,-9.474733 C 222.63731,-9.474733 232.98106,4.494017 232.98106,20.494017 L 232.98106,58.994017 C 233.13306,77.494017 219.63732,88.806507 203.13731,88.806517 L 131.38731,88.806517 L 131.32481,88.806517 L 131.26231,88.806517 L 59.512314,88.806517 C 43.012314,88.806517 29.516564,77.494017 29.668564,58.994017 L 29.668564,20.494017 C 29.668564,4.494017 40.012314,-9.474731 59.512314,-9.474733 z M 56.262314,175.24402 C 70.767314,175.24403 82.512314,186.98902 82.512314,201.49402 C 82.512314,215.99803 70.767314,227.74402 56.262314,227.74402 C 41.757314,227.74403 30.012314,215.99802 30.012314,201.49402 C 30.012314,186.98903 41.757314,175.24402 56.262314,175.24402 z M 205.76231,175.24402 C 220.26731,175.24402 232.04356,186.98903 232.04356,201.49402 C 232.04356,215.99802 220.26731,227.74403 205.76231,227.74402 C 191.25731,227.74402 179.51231,215.99803 179.51231,201.49402 C 179.51231,186.98902 191.25731,175.24403 205.76231,175.24402 z"
     style="fill:#fc1b1c;fill-opacity:1;stroke:none" /><path
     style="fill:#fc1b1c;fill-opacity:1;stroke:none"
     id="path2233"
     d="M 109.28031,-76.009483 C 100.11531,-76.009483 92.689314,-83.437483 92.689314,-92.602483 C 92.689314,-101.76548 100.11531,-109.19348 109.28031,-109.19348 C 118.44331,-109.19348 125.87131,-101.76548 125.87131,-92.602483 C 125.87131,-83.437483 118.44331,-76.009483 109.28031,-76.009483 z" /><path
     style="fill:#fc1b1c;fill-opacity:1;stroke:none"
     id="path2235"
     d="M 153.36631,-76.009483 C 162.53131,-76.009483 169.95731,-83.437483 169.95731,-92.602483 C 169.95731,-101.76548 162.53131,-109.19348 153.36631,-109.19348 C 144.20331,-109.19348 136.77531,-101.76548 136.77531,-92.602483 C 136.77531,-83.437483 144.20331,-76.009483 153.36631,-76.009483 z" /></g></svg>